<svg width="16" height="17" viewBox="0 0 16 17" fill="none" xmlns="http://www.w3.org/2000/svg">
<g opacity="0.7">
<path d="M11.125 2.75C9.86938 2.75 8.755 3.24563 8 4.0975C7.245 3.24563 6.13062 2.75 4.875 2.75C3.78139 2.75132 2.73295 3.18635 1.95965 3.95965C1.18635 4.73295 0.751323 5.78139 0.75 6.875C0.75 11.3962 7.36312 15.0088 7.64437 15.1606C7.75367 15.2195 7.87586 15.2503 8 15.2503C8.12414 15.2503 8.24633 15.2195 8.35563 15.1606C8.63688 15.0088 15.25 11.3962 15.25 6.875C15.2487 5.78139 14.8137 4.73295 14.0404 3.95965C13.2671 3.18635 12.2186 2.75132 11.125 2.75ZM10.7819 11.6475C9.91142 12.3861 8.98091 13.0509 8 13.635C7.01909 13.0509 6.08858 12.3861 5.21812 11.6475C3.86375 10.4856 2.25 8.71375 2.25 6.875C2.25 6.17881 2.52656 5.51113 3.01884 5.01884C3.51113 4.52656 4.17881 4.25 4.875 4.25C5.9875 4.25 6.91875 4.8375 7.30562 5.78375C7.36193 5.92169 7.45805 6.03974 7.58172 6.12283C7.70539 6.20592 7.85101 6.2503 8 6.2503C8.14899 6.2503 8.29461 6.20592 8.41828 6.12283C8.54195 6.03974 8.63807 5.92169 8.69438 5.78375C9.08125 4.8375 10.0125 4.25 11.125 4.25C11.8212 4.25 12.4889 4.52656 12.9812 5.01884C13.4734 5.51113 13.75 6.17881 13.75 6.875C13.75 8.71375 12.1362 10.4856 10.7819 11.6475Z" fill="white"/>
</g>
</svg>
